PathFileType	4	(X/Y/Z)	SUBJ11_0_static_RCNL2025.trc
DataRate	CameraRate	NumFrames	NumMarkers	Units	OrigDataRate	OrigDataStartFrame	OrigNumFrames
100	100	7	25	mm	100	106	120
Frame#	Time	R_Shoulder			L_Shoulder			C7			J_Notch			R_Elbow			L_Elbow			R_Wrist			L_Wrist			R_Asis			L_Asis			Sacral			Thoracic			Sternum			R_Thigh_Lateral			R_Knee_Lateral			R_Shank_Lateral			R_Ankle_Lateral			R_Heel			R_Toe			L_Thigh_Lateral			L_Knee_Lateral			L_Shank_Lateral			L_Ankle_Lateral			L_Heel			L_Toe		
		X1	Y1	Z1	X2	Y2	Z2	X3	Y3	Z3	X4	Y4	Z4	X5	Y5	Z5	X6	Y6	Z6	X7	Y7	Z7	X8	Y8	Z8	X9	Y9	Z9	X10	Y10	Z10	X11	Y11	Z11	X12	Y12	Z12	X13	Y13	Z13	X14	Y14	Z14	X15	Y15	Z15	X16	Y16	Z16	X17	Y17	Z17	X18	Y18	Z18	X19	Y19	Z19	X20	Y20	Z20	X21	Y21	Z21	X22	Y22	Z22	X23	Y23	Z23	X24	Y24	Z24	X25	Y25	Z25
106	1.05000000	-330.701569	1316.311768	16.549889	-338.241211	1357.532959	-418.601166	-399.996155	1423.062744	-208.587372	-268.842499	1318.649414	-215.966019	-387.521576	1052.888062	129.026474	-343.538696	1075.364136	-545.405823	-322.080032	802.335663	146.495941	-271.587448	822.763458	-573.037750	-254.416687	904.829529	-105.906151	-274.426056	917.158142	-355.999268	-446.708862	947.515625	-206.076782	-467.845764	1204.229858	-206.667831	-218.818039	1165.562500	-228.794662	-316.823456	576.126343	-6.780497	-372.491150	460.631378	-83.417656	-387.436737	245.602051	-20.732439	-409.456421	64.444290	-81.737190	-451.117767	54.498146	-136.484741	-272.234222	43.487350	-96.992142	-368.159973	584.846252	-425.107056	-366.393616	478.182404	-373.653229	-412.282501	240.019257	-415.652649	-409.075348	64.171249	-361.265656	-452.908905	62.379025	-298.754639	-248.981308	64.533997	-348.863342
107	1.06000000	-330.719910	1316.310059	16.538939	-338.298950	1357.515625	-418.548798	-399.917450	1423.091797	-208.660034	-268.641724	1318.559937	-215.835388	-387.422699	1052.903198	129.066376	-343.535828	1075.276489	-545.242249	-321.814072	802.396301	146.456520	-271.770569	822.709442	-572.894684	-254.435181	904.786743	-105.912621	-274.415924	917.169067	-356.020844	-446.690491	947.506958	-206.106445	-467.846741	1204.243408	-206.665863	-218.744064	1165.434570	-228.925064	-316.937347	576.230896	-6.673308	-372.527191	460.635895	-83.359169	-388.432983	246.044968	-19.937384	-409.107300	64.112358	-81.953049	-451.122406	54.495766	-136.349716	-272.063904	43.186039	-97.066475	-368.259338	584.911438	-425.042847	-366.464203	478.118927	-373.549042	-412.296234	240.015442	-415.590881	-409.142242	64.756760	-361.943848	-452.935913	62.397346	-298.749908	-248.819061	64.535294	-348.851288
108	1.07000000	-330.606140	1316.253296	16.519430	-338.699615	1357.502808	-418.924805	-399.907898	1423.105591	-208.652771	-268.436218	1318.691406	-215.872498	-387.468140	1052.952393	129.110123	-343.579834	1075.290649	-545.297852	-321.369217	802.411530	146.272942	-271.972992	822.666809	-572.745667	-254.339951	904.841980	-105.858025	-274.337860	917.192932	-355.976318	-446.718445	947.456360	-206.054993	-467.846649	1204.244751	-206.666168	-218.759369	1165.362549	-228.803314	-316.861481	576.069031	-6.896073	-372.458984	460.691376	-83.396545	-387.950989	245.783798	-20.549498	-408.963654	63.989986	-82.056854	-451.120575	54.495098	-136.338348	-272.071442	43.388420	-97.022797	-368.247681	584.785767	-425.011261	-366.466644	478.088074	-373.518677	-412.325500	240.044434	-415.605194	-409.173889	64.199715	-361.338959	-452.929871	62.395447	-298.747437	-248.845947	64.602753	-348.796448
109	1.08000000	-330.473755	1316.356079	16.383169	-338.827881	1357.508179	-419.027374	-399.911377	1423.095703	-208.666077	-268.366821	1318.632690	-215.909683	-387.284058	1052.856934	129.084305	-343.661285	1075.231812	-545.216675	-321.414566	802.491455	146.583538	-272.019089	822.481781	-572.636383	-254.163803	904.899231	-105.769684	-274.323853	917.192749	-355.995514	-446.739380	947.567749	-206.040161	-467.824585	1204.321899	-206.705490	-218.829376	1165.447021	-228.763092	-316.943237	576.150818	-6.800121	-372.347961	460.736084	-83.387344	-388.359924	246.114151	-20.069420	-409.140015	64.176849	-81.961052	-451.221222	54.533306	-136.521606	-272.189941	43.586243	-96.986938	-368.343719	584.944885	-424.968231	-366.412689	478.199738	-373.535156	-412.335236	240.046783	-415.597076	-409.149109	64.165390	-361.178528	-452.928925	62.392025	-298.751648	-248.962219	64.489441	-348.874817
110	1.09000000	-330.399323	1316.260498	16.321871	-338.682129	1357.493408	-419.022614	-399.839600	1423.027344	-208.591812	-268.539337	1318.549927	-215.995468	-387.342285	1052.929077	129.140381	-343.567657	1075.140259	-545.142822	-321.326538	802.405090	146.541882	-272.055481	822.408661	-572.508209	-254.101852	904.914673	-105.808327	-274.366180	917.180542	-356.014679	-446.742767	947.575073	-206.039856	-467.863892	1204.355103	-206.658325	-218.904434	1165.312012	-228.760101	-317.034210	576.193054	-6.708644	-372.221893	460.848785	-83.331573	-388.685394	246.308807	-19.854038	-409.371735	64.419701	-81.808434	-451.171875	54.533257	-136.409210	-272.245239	43.649826	-97.012001	-368.240814	584.889038	-424.908630	-366.330017	478.203064	-373.546356	-412.335815	240.074982	-415.601227	-409.196381	64.195251	-361.206085	-452.846680	62.318054	-298.771667	-249.128891	64.533386	-348.705139
111	1.10000000	-330.412720	1316.229736	16.335102	-338.630157	1357.469604	-418.991364	-399.757874	1423.063721	-208.634857	-268.714233	1318.513794	-216.021988	-387.192352	1052.824585	129.149963	-343.738129	1075.134644	-545.138428	-321.217819	802.281342	146.516300	-272.085190	822.308197	-572.357208	-254.157257	904.898438	-105.837639	-274.445282	917.137268	-356.044952	-446.740784	947.556519	-206.042465	-467.796417	1204.334717	-206.697281	-219.026413	1165.079102	-228.787827	-317.013336	576.131226	-6.750772	-372.107635	460.767212	-83.318649	-387.866730	245.660355	-20.647516	-409.482300	64.463150	-81.723465	-450.998322	54.432144	-136.543762	-272.204529	43.601604	-96.983559	-368.233612	584.869568	-424.919983	-366.497955	478.134186	-373.457153	-412.371002	240.058105	-415.722900	-409.127075	64.181549	-361.251648	-452.919250	62.367924	-298.753967	-249.132217	64.512749	-348.797089
112	1.11000000	-330.452240	1316.218750	16.370121	-338.776825	1357.445679	-419.105682	-399.683716	1423.163940	-208.703354	-268.809082	1318.498657	-216.043045	-387.101685	1052.782227	129.097137	-343.699615	1075.013672	-545.078552	-321.022598	802.409637	146.379570	-272.196884	822.221222	-572.323395	-254.261765	904.955505	-105.898529	-274.505798	917.139282	-356.056458	-446.751953	947.480042	-206.019653	-467.727173	1204.307129	-206.635345	-219.064377	1164.971802	-228.925079	-316.854431	575.977173	-6.916622	-372.096252	460.733093	-83.321907	-387.478119	245.391174	-20.861887	-409.098145	64.022774	-82.003944	-450.997986	54.455441	-136.337112	-272.198425	43.598476	-96.985268	-368.255981	584.843018	-425.013641	-366.371460	478.094727	-373.605042	-412.704498	240.063492	-416.015442	-409.126740	64.132034	-361.282349	-452.823303	62.256210	-298.814728	-249.192276	64.426079	-348.866425
